<svg xmlns="http://www.w3.org/2000/svg" viewBox="0 0 336.81 174.54"><defs><style>.cls-1{stroke:#000;stroke-miterlimit:10;fill-rule:evenodd;}</style></defs><title>Asset 5</title><g id="Layer_2" data-name="Layer 2"><g id="Layer_1-2" data-name="Layer 1"><path class="cls-1" d="M33.46,121c5.33.33,83-12.66,87.66-13s31.33-4.16,44,12c4.84,6.17,7,.5,7,.5s16.49-18,45.16-13.33,88.33,14.5,88.33,14.5,3.34,18.66,8,21.33c0,0,11.67,1,14.34,1.33s8.67,2.5,8.33,9.34-4.16,9.33-8.5,9.33-118.5-8.83-118.5-8.83S198.46,174.69,168.46,174s-38-15.67-40.34-19.67l-116.58,8.5s-10.25.75-11-8.25,8.75-10.75,13-10.75,11-.5,11-.5S30.79,134.86,33.46,121Zm8.33,10.58-4.5,10.75s95.25-6.25,96.5-6.75,6.75.75,10.25,9,16.5,10.75,24.75,10.75,20.25-3.25,25-12.5,5.5-8,13.75-7.75,92.75,6.75,92.75,6.75-3.5-8.25-3.75-10.5c0,0-76-13-78-13.25s-20.25-1.91-31.08,4.25-12.67,13-13.84,17.67a3.72,3.72,0,0,1-5.33,2.83,6.9,6.9,0,0,1-4.67-6.83c0-5.5-8.33-12.67-17.5-15.5s-22.16-2.33-42.5,1.33S41.79,131.61,41.79,131.61Z"/><path class="cls-1" d="M88.77,49.83A7.88,7.88,0,1,1,77.62,38.68a130.45,130.45,0,0,1,184.34,0,7.88,7.88,0,0,1-11.15,11.15,114.51,114.51,0,0,0-162,0Z"/><path class="cls-1" d="M111.05,72.14A7.87,7.87,0,1,1,100,61a98.82,98.82,0,0,1,139.68,0,7.87,7.87,0,1,1-11.1,11.15,83,83,0,0,0-117.48,0Z"/><path class="cls-1" d="M133.35,94.45A7.86,7.86,0,0,1,122.26,83.3a67.22,67.22,0,0,1,95.06,0,7.86,7.86,0,0,1-11.09,11.15,51.51,51.51,0,0,0-72.88,0Z"/></g></g></svg>