<svg id="Layer_1" data-name="Layer 1" xmlns="http://www.w3.org/2000/svg" viewBox="0 0 390.98 390.98"><defs><style>.cls-1{fill:none;stroke-width:13px;}.cls-1,.cls-2{stroke:#fff;stroke-miterlimit:10;}.cls-2{fill:#fff;fill-rule:evenodd;}</style></defs><title>talkingdictionary-logo-white-2</title><circle class="cls-1" cx="195.49" cy="195.49" r="188.99"/><path class="cls-2" d="M60.15,202.82c5.34.34,83-12.66,87.67-13s31.33-4.16,44,12c4.83,6.17,7,.5,7,.5s16.5-18,45.17-13.33,88.33,14.5,88.33,14.5,3.33,18.67,8,21.33c0,0,11.67,1,14.33,1.34s8.67,2.5,8.34,9.33-4.17,9.33-8.5,9.33S236,236,236,236s-10.84,20.5-40.84,19.83-38-15.66-40.33-19.66l-116.58,8.5s-10.25.75-11-8.25,8.75-10.75,13-10.75,11-.5,11-.5S57.49,216.66,60.15,202.82Zm8.34,10.59L64,224.16s95.25-6.25,96.5-6.75,6.75.75,10.25,9,16.5,10.75,24.75,10.75,20.25-3.25,25-12.5,5.5-8,13.75-7.75S327,223.66,327,223.66s-3.5-8.25-3.75-10.5c0,0-76-13-78-13.25S225,198,214.15,204.16s-12.66,13-13.83,17.66a3.73,3.73,0,0,1-5.33,2.84,6.92,6.92,0,0,1-4.67-6.84c0-5.5-8.33-12.66-17.5-15.5s-22.16-2.33-42.5,1.34S68.49,213.41,68.49,213.41Z"/><path class="cls-2" d="M115.46,131.63a7.88,7.88,0,1,1-11.15-11.15,130.43,130.43,0,0,1,184.35,0,7.88,7.88,0,1,1-11.15,11.15,114.51,114.51,0,0,0-162,0Z"/><path class="cls-2" d="M137.74,153.93a7.86,7.86,0,1,1-11.09-11.15,98.79,98.79,0,0,1,139.67,0,7.86,7.86,0,0,1-11.09,11.15,83.05,83.05,0,0,0-117.49,0Z"/><path class="cls-2" d="M160.05,176.24A7.87,7.87,0,0,1,149,165.09a67.27,67.27,0,0,1,95.07,0,7.87,7.87,0,1,1-11.1,11.15,51.49,51.49,0,0,0-72.87,0Z"/></svg>